<svg xmlns="http://www.w3.org/2000/svg" xmlns:xlink="http://www.w3.org/1999/xlink" width="108px" height="49px" viewBox="0 0 108 49" version="1.1">
    <!-- Generator: Sketch 64 (93537) - https://sketch.com -->
    <title>New Logo</title>
    <desc>Created with Sketch.</desc>
    <g id="New-Test" stroke="none" stroke-width="1" fill="none" fill-rule="evenodd">
        <g id="Home-Page-" transform="translate(-1199.000000, -23.000000)" fill-rule="nonzero">
            <g id="New-Logo" transform="translate(1199.000000, 23.000000)">
                <polygon id="Path" fill="#63CFE3" points="80.46 12.018 80.46 21.994 72.086 20.959"/>
                <polygon id="Path" fill="#008FBE" points="80.46 21.994 80.46 23.732 71.871 36.347 71.855 36.331 71.855 21.205 72.086 20.959"/>
                <polygon id="Path" fill="#00C1DE" points="80.598 32.902 72.602 37.079 71.872 36.348 80.461 23.732 80.461 32.765"/>
                <polygon id="Path" fill="#63CFE3" points="81.674 33.978 79.838 44.313 72.602 37.078 80.598 32.902"/>
                <polygon id="Path" fill="#00C1DE" points="88.012 40.316 81.218 45.694 79.837 44.314 81.674 33.978"/>
                <polygon id="Path" fill="#008FBE" points="88.653 40.958 87.913 48.084 83.608 48.084 81.219 45.695 88.012 40.317"/>
                <polygon id="Path" fill="#63CFE3" points="95.779 48.084 87.912 48.084 88.653 40.959"/>
                <polygon id="Path" fill="#00C1DE" points="91.784 28.055 89.581 38.07 83.084 31.523 83.084 27.208 91.691 27.007 91.691 27.957"/>
                <polygon id="Path" fill="#00A6CE" points="91.691 14.201 91.691 27.007 83.084 27.209 83.084 25.853"/>
                <polygon id="Path" fill="#63CFE3" points="91.691 13.616 91.691 14.201 83.084 25.853 83.084 9.187 83.111 9.156"/>
                <polygon id="Path" fill="#007DA5" points="91.691 0 91.691 13.616 83.111 9.157"/>
                <polygon id="Path" fill="#008FBE" points="100.111 36.427 99.605 48.052 99.564 48.052 89.582 38.07 99.656 35.971"/>
                <polygon id="Path" fill="#00C1DE" points="107.654 43.969 107.654 48.052 99.605 48.052 100.111 36.427"/>
                <path d="M107.654,22.129 L107.654,29.983 C106.532,29.242 104.534,27.919 103.202,27.023 L107.654,22.129 Z" id="Path" fill="#6BCDB2"/>
                <polygon id="Path" fill="#007853" points="107.654 31.224 107.654 40.134 102.732 35.212"/>
                <polygon id="Path" fill="#63CFE3" points="99.656 35.971 89.582 38.069 91.784 28.055 92.978 29.293"/>
                <path d="M107.654,29.984 L107.654,31.224 L102.731,35.211 L99.078,31.559 L99.078,31.559 L103.202,27.024 C104.534,27.924 106.532,29.244 107.654,29.986" id="Path" fill="#00B189"/>
                <polygon id="Path" fill="#3D4042" points="5.173 45.002 6.27 46.293 7.614 45.166 6.533 43.872"/>
                <rect id="Rectangle" fill="#3D4042" transform="translate(3.955545, 45.083182) rotate(-39.901000) translate(-3.955545, -45.083182) " x="3.07254453" y="44.2416816" width="1.766" height="1.683"/>
                <path d="M13.016,37.276 L10.316,37.276 C9.73008152,37.2829675 9.1450953,37.2273184 8.571,37.11 C7.94959618,36.9578472 7.3484064,36.7326109 6.78,36.439 L6.663,36.488 L6.163,37.813 C7.61148083,38.5186722 8.89815649,39.5166204 9.942,40.744 C8.54784687,41.2256281 7.07851411,41.4529038 5.604,41.415 C4.49808581,41.4957325 3.3918052,41.2631779 2.412,40.744 C1.71478628,40.2618584 1.32694388,39.4450272 1.394,38.6 C1.3930528,37.8486606 1.51464887,37.1021958 1.754,36.39 L1.654,36.308 L0.476,36.508 C0.154265544,37.298334 -0.00719508208,38.1447276 0.001,38.998 C0.001,41.7133333 1.758,43.071 5.272,43.071 C6.27915662,43.0704414 7.28330915,42.9611414 8.267,42.745 C9.16973728,42.5587252 10.0493271,42.2740238 10.89,41.896 L11.329,40.405 C10.8288062,39.779719 10.2583958,39.2140061 9.629,38.719 L9.694,38.602 C9.884,38.68 10.068,38.742 10.243,38.795 C10.5645382,38.8906435 10.89759,38.9421151 11.233,38.948 L14.493,38.948 L14.493,32.378 L13.016,32.378 L13.016,37.276 Z" id="Path" fill="#3D4042"/>
                <polygon id="Path" fill="#3D4042" points="12.46 29.793 13.541 31.071 14.897 29.941 13.834 28.661"/>
                <path d="M21.994,32.911 C21.5599294,32.3521124 20.8936351,32.023019 20.186,32.018 C19.3360612,32.0844742 18.5692246,32.5535715 18.123,33.28 C17.4295944,34.2282501 16.9539551,35.3178158 16.73,36.471 C18.0085988,38.0413304 19.9133525,38.9695687 21.938,39.009 C21.8994194,39.5693463 21.6435895,40.0924879 21.225,40.467 C20.7659712,40.7651844 20.2233693,40.9081958 19.677,40.875 C18.8315071,40.8854037 17.9903338,40.7528715 17.189,40.483 L17.076,40.583 L17.337,42.006 C18.0029336,42.3193456 18.7300302,42.4812262 19.466,42.4800069 C22.096,42.4800069 23.411,40.865 23.411,37.635 C23.4143049,36.7595214 23.3043937,35.88729 23.084,35.04 C22.8854371,34.2573774 22.5128527,33.5296415 21.994,32.911 L21.994,32.911 Z M18.188,35.932 C18.3590568,35.3571501 18.6335505,34.8183291 18.998,34.342 C19.2128321,33.9986686 19.5710337,33.7705217 19.973,33.721 C20.4077109,33.7274955 20.8145008,33.9364376 21.073,34.286 C21.3952637,34.6845034 21.6272631,35.1481609 21.753,35.645 C21.9029338,36.2260928 21.9910892,36.8213932 22.016,37.421 C20.6012846,37.4072102 19.2401941,36.8777787 18.188,35.932 L18.188,35.932 Z" id="Shape" fill="#3D4042"/>
                <polygon id="Path" fill="#3D4042" points="33.578 30.168 32.612 29.024 31.252 30.154 32.333 31.413 33.676 30.283 34.642 31.43 36 30.3 34.937 29.04"/>
                <path d="M49.474,37.274 L47.454,37.274 C46.9210761,37.2962419 46.3929271,37.1654192 45.932,36.897 C45.8918769,35.6729918 45.3653241,34.5155113 44.469,33.681 C43.6007282,32.9841113 42.5117648,32.6208871 41.399,32.657 C40.5687281,32.662977 39.7410644,32.7507342 38.928,32.919 L43.937,27.909 L43.167,26.682 L43.024,26.682 L37.098,33.082 L37.698,34.456 C38.7280669,34.3024453 39.7675887,34.2209141 40.809,34.212 C41.7199796,34.1597406 42.6256871,34.3819873 43.409,34.85 C44.1232385,35.4551704 44.5455527,36.3361741 44.57,37.272 L36.115,37.272 C35.5741082,37.3005217 35.0373398,37.1638009 34.576,36.88 L34.576,32.919 L33.087,32.919 L33.087,37.273 L30.107,37.273 C29.5233471,37.2991729 28.942766,37.174861 28.421,36.912 L28.421,32.919 L26.964,32.919 L26.964,38.862 C27.0092977,39.4027953 26.8829794,39.9441097 26.603,40.409 C26.3338498,40.7339583 25.9237267,40.9080742 25.503,40.876 C25.015713,40.8815026 24.5303435,40.8140902 24.063,40.676 L23.946,40.776 L24.214,42.2 C24.5965529,42.3838205 25.0155749,42.4791771 25.44,42.4790002 C27.4273333,42.4790002 28.421,41.1806667 28.421,38.584 L28.421,38.256 C28.8874807,38.6609576 29.4736136,38.9022238 30.09,38.943 L33.463,38.943 L34.068,37.96 C34.57471,38.5336827 35.2856709,38.8864714 36.049,38.943 L45.087,38.943 L45.545,38.108 C46.0252947,38.622386 46.6915233,38.9230892 47.395,38.943 L50.995,38.943 L50.995,26.666 L49.474,26.666 L49.474,37.274 Z" id="Path" fill="#3D4042"/>
                <path d="M60.311,28.466 L60.311,26.666 L58.854,26.666 L58.854,28.7 C58.9064531,29.982523 58.700716,31.2625138 58.249,32.464 C57.0317422,31.1773521 55.7287622,29.9746013 54.349,28.864 L53.301,29.797 L53.301,29.926 C54.78416,31.0946367 56.1848268,32.3643251 57.493,33.726 L57.263,34.005 C56.0917243,35.3570604 54.6828375,36.4832886 53.106,37.328 L53.073,37.508 L53.629,38.95 L60.915,38.95 L61.604,37.393 C60.9925304,36.0258004 60.199009,34.7475548 59.245,33.593 C60.0421755,32.0064889 60.4097148,30.2387836 60.311,28.466 Z M60.18,37.356 L55.138,37.356 C56.3125453,36.7360861 57.3659893,35.9099286 58.248,34.917 L58.396,34.736 C59.0771757,35.547182 59.6748625,36.4249508 60.18,37.356 Z" id="Shape" fill="#3D4042"/>
                <path d="M56.578,42.285 C56.0900879,42.4309353 55.582092,42.4984431 55.073,42.485 C54.8496186,42.219586 54.732733,41.8806892 54.745,41.534 C54.7394019,41.4134373 54.7501665,41.2926719 54.777,41.175 C54.9560094,41.143772 55.1372924,41.127383 55.319,41.126 C55.6576947,41.1264324 55.9960276,41.1481418 56.332,41.191 L56.414,40.371 C56.0972816,40.2970826 55.7732275,40.2591756 55.448,40.2579982 C55.0245505,40.2575821 54.6041513,40.3296216 54.205,40.471 C54.0099811,40.8270199 53.9068674,41.2260701 53.905,41.632 C53.9127501,41.9370338 54.0218166,42.2308097 54.215,42.467 L53.398,42.436 L53.398,43.353 L54.986,43.353 C55.5920096,43.3620106 56.196749,43.2948173 56.786,43.153 L56.657,42.318 L56.578,42.285 Z" id="Path" fill="#3D4042"/>
                <rect id="Rectangle" fill="#3D4042" x="63.486" y="26.666" width="1.475" height="12.278"/>
                <path d="M35.722,19.279 L36.589,17.708 C35.9916292,15.4195183 34.8712297,13.3009261 33.316,11.519 L33.135,11.519 L32.054,12.6 C33.3454158,14.0892131 34.3805017,15.7825907 35.117,17.611 L30.089,17.611 L29.96,17.759 L30.352,19.281 L35.722,19.279 Z" id="Path" fill="#3D4042"/>
                <rect id="Rectangle" fill="#3D4042" x="38.913" y="7" width="1.475" height="12.278"/>
                <polygon id="Path" fill="#3D4042" points="46.315 10.127 45.25 8.851 43.874 9.981 44.955 11.257"/>
                <path d="M42.875,22.8150379 C44.8616667,22.8150379 45.855,21.5166667 45.855,18.92 L45.855,18.592 C46.3218655,18.9969687 46.9083153,19.2382207 47.525,19.279 L47.919,19.279 C48.3813034,19.2967692 48.8395183,19.1863685 49.243,18.96 C49.6615135,18.6764067 50.0133161,18.3051543 50.274,17.872 L54.007,19.572 L55.154,18.472 L55.17,18.439 C55.6707666,18.953655 56.3522245,19.2531378 57.07,19.274 L60.67,19.274 L60.67,7 L59.154,7 L59.154,17.609 L57.133,17.609 C56.6126441,17.6360266 56.0945846,17.5227443 55.633,17.281 C55.7296146,16.87912 55.778949,16.4673289 55.78,16.054 C55.8157435,15.170575 55.5782959,14.2976062 55.1,13.554 C54.7261388,12.9410398 54.0589726,12.5682004 53.341,12.571 C52.673971,12.5805696 52.0404496,12.8649488 51.59,13.357 C50.9690955,14.0182882 50.4503799,14.7685553 50.051,15.583 C49.7791459,16.1537046 49.4415223,16.6906806 49.045,17.183 C48.793411,17.4647767 48.4316995,17.6231851 48.054,17.617 L47.546,17.617 C46.9599312,17.6409629 46.377473,17.5146259 45.854,17.25 L45.854,13.255 L44.397,13.255 L44.397,19.2 C44.4434481,19.7406208 44.3177942,20.2820876 44.038,20.747 C43.7688498,21.0719583 43.3587267,21.2460742 42.938,21.214 C42.4497338,21.2194126 41.9633885,21.1520051 41.495,21.014 L41.382,21.114 L41.644,22.537 C42.0278317,22.7221357 42.4488579,22.8172172 42.875,22.8150379 Z M51.126,16.382 C51.4044563,15.8071644 51.739441,15.2614742 52.126,14.753 C52.3359419,14.4490148 52.6742009,14.2586749 53.043,14.236995 C53.44609,14.2357953 53.8186192,14.4516712 54.018,14.802 C54.2854633,15.2662443 54.4129195,15.7979487 54.385,16.333 C54.3823817,16.9077775 54.2594084,17.4756348 54.024,18 L50.996,16.61 L51.126,16.382 Z" id="Shape" fill="#3D4042"/>
                <rect id="Rectangle" fill="#3D4042" x="63.486" y="7" width="1.475" height="12.278"/>
            </g>
        </g>
    </g>
</svg>